<?xml version='1.0' encoding='UTF-8' standalone='no'?>
<!-- Created with Fritzing (http://www.fritzing.org/) -->
<svg xmlns:svg='http://www.w3.org/2000/svg' xmlns='http://www.w3.org/2000/svg' version='1.2' baseProfile='tiny' x='0in' y='0in' width='1.4in' height='1.1in' viewBox='0 0 100.8 79.2' >
<g partID='62010'><g transform="matrix(1, 0, 0, 1, 0, -208.8)">
 <g  id="icon">
  <g >
   <path  id="rect2999" style="display:inline" stroke="none" fill="#2ca02c" d="m3.6,216,0,64.8,93.6,0,0,-64.8,-93.6,0zM7.2,245.525c1.59058,0,2.875,1.28442,2.875,2.875,0,1.59058,-1.28442,2.875,-2.875,2.875,-1.59058,0,-2.875,-1.28442,-2.875,-2.875,0,-1.59058,1.28442,-2.875,2.875,-2.875zm86.4,0c1.59058,0,2.875,1.28442,2.875,2.875,0,1.59058,-1.28442,2.875,-2.875,2.875,-1.59058,0,-2.875,-1.28442,-2.875,-2.875,0,-1.59058,1.28442,-2.875,2.875,-2.875z"/>
   <rect  x="14.4" id="rect3006" y="212.4" style="fill-rule:evenodd;stroke-linecap:round;stroke-linejoin:miter;stroke-miterlimit:4;stroke-dasharray:none;display:inline" stroke-width="0.144" stroke="#000000" width="72" fill-opacity="1" height="72" fill="#dbe3e2" stroke-opacity="1"/>
   <g transform="matrix(1, 0, 0, 1, -3.6, 0)">
    <path  id="path3826" style="opacity:0.95;fill-rule:evenodd;stroke-linecap:butt;stroke-linejoin:miter;stroke-miterlimit:4;stroke-dasharray:none;display:inline" stroke-width="10.8" stroke="#ffffff" fill-opacity="1" fill="#b7c8be" stroke-opacity="0.39130435" d="m61.2944,228.069a21.6,21.6,0,0,1,12.417,11.498"/>
   </g>
   <g transform="matrix(1, 0, 0, 1, -3.6, 0)">
    <path  id="path3780" style="opacity:0.95;fill-rule:evenodd;stroke-linecap:round;stroke-linejoin:miter;stroke-miterlimit:4;stroke-dasharray:none;display:inline" stroke-width="0.144" stroke="#000000" fill-opacity="1" fill="url(#radialGradient4218)" stroke-opacity="0.48369565" d="m90,248.4a36,36,0,1,1,-72,0,36,36,0,1,1,72,0z"/>
   </g>
   <g transform="matrix(1, 0, 0, 1, -3.6, 0)">
    <path  id="path3824" style="opacity:0.66515838;stroke-linecap:butt;stroke-linejoin:miter;stroke-miterlimit:4;stroke-dasharray:none;display:inline" stroke-width="18" stroke="#ffffff" fill="none" stroke-opacity="0.66847827" d="m40.9324,236.021a18,18,0,0,1,4.22924,-3.30174"/>
   </g>
  </g>
 </g>
</g>
</g></svg>