G75*
%MOIN*%
%OFA0B0*%
%FSLAX25Y25*%
%IPPOS*%
%LPD*%
%AMOC8*
5,1,8,0,0,1.08239X$1,22.5*
%
%ADD10C,0.00000*%
%ADD11OC8,0.06000*%
%ADD12OC8,0.05200*%
%ADD13C,0.05937*%
%ADD14C,0.00500*%
D10*
X0024595Y0001256D02*
X0024595Y0081717D01*
X0223296Y0081717D01*
X0223296Y0001256D01*
X0024595Y0001256D01*
D11*
X0187595Y0016756D03*
X0197595Y0016756D03*
X0207595Y0016756D03*
X0217595Y0016756D03*
X0217595Y0026756D03*
X0207595Y0026756D03*
X0197595Y0026756D03*
X0187595Y0026756D03*
X0187595Y0036756D03*
X0197595Y0036756D03*
X0207595Y0036756D03*
X0217595Y0036756D03*
X0217595Y0046756D03*
X0207595Y0046756D03*
X0197595Y0046756D03*
X0187595Y0046756D03*
X0187595Y0056756D03*
X0197595Y0056756D03*
X0207595Y0056756D03*
X0217595Y0056756D03*
X0217595Y0066756D03*
X0207595Y0066756D03*
X0197595Y0066756D03*
X0187595Y0066756D03*
D12*
X0045095Y0065756D03*
X0045095Y0035756D03*
X0038095Y0022256D03*
X0038095Y0012256D03*
D13*
X0056595Y0016256D03*
X0066595Y0011256D03*
X0076595Y0011256D03*
X0086595Y0011256D03*
X0096595Y0011256D03*
X0106595Y0011256D03*
X0116595Y0011256D03*
X0126595Y0011256D03*
X0136595Y0011256D03*
X0146595Y0011256D03*
X0156595Y0011256D03*
X0166595Y0011256D03*
X0176595Y0011256D03*
X0176595Y0041256D03*
X0176595Y0051256D03*
X0176595Y0061256D03*
X0176595Y0071256D03*
X0166595Y0071256D03*
X0156595Y0071256D03*
X0146595Y0071256D03*
X0136595Y0071256D03*
X0126595Y0071256D03*
X0116595Y0071256D03*
X0106595Y0071256D03*
X0096595Y0071256D03*
X0086595Y0071256D03*
X0076595Y0071256D03*
X0066595Y0071256D03*
X0056595Y0066256D03*
X0056595Y0056256D03*
X0056595Y0046256D03*
X0056595Y0036256D03*
X0056595Y0026256D03*
X0101595Y0061256D03*
X0111595Y0061256D03*
D14*
X0126595Y0071256D02*
X0130095Y0071256D01*
X0135095Y0076256D01*
X0193845Y0076256D01*
X0203845Y0066256D01*
X0203845Y0061256D01*
X0207595Y0057506D01*
X0207595Y0056756D01*
X0213595Y0060756D02*
X0217595Y0056756D01*
X0217595Y0056256D01*
X0213845Y0052506D01*
X0186345Y0052506D01*
X0183845Y0055006D01*
X0156345Y0055006D01*
X0140095Y0071256D01*
X0136595Y0071256D01*
X0146595Y0071256D02*
X0150095Y0071256D01*
X0153845Y0075006D01*
X0180095Y0075006D01*
X0187595Y0067506D01*
X0187595Y0066756D01*
X0183845Y0065006D02*
X0186345Y0062506D01*
X0193845Y0062506D01*
X0197595Y0066256D01*
X0197595Y0066756D01*
X0183845Y0065006D02*
X0166345Y0065006D01*
X0160095Y0071256D01*
X0156595Y0071256D01*
X0187595Y0047506D02*
X0187595Y0046756D01*
X0187595Y0047506D02*
X0093845Y0047506D01*
X0070095Y0071256D01*
X0066595Y0071256D01*
X0045095Y0065756D02*
X0045095Y0041256D01*
X0056345Y0030006D01*
X0093845Y0030006D01*
X0111345Y0012506D01*
X0131345Y0032506D01*
X0197595Y0032506D01*
X0202595Y0027506D01*
X0207595Y0027506D01*
X0207595Y0026756D01*
X0213595Y0022756D02*
X0217595Y0026756D01*
X0217595Y0026256D01*
X0213845Y0022506D01*
X0151345Y0022506D01*
X0140095Y0011256D01*
X0136595Y0011256D01*
X0126595Y0011256D02*
X0126345Y0011256D01*
X0122595Y0007506D01*
X0113845Y0007506D01*
X0112595Y0008756D01*
X0112595Y0011256D01*
X0111345Y0012506D01*
X0116595Y0011256D02*
X0120095Y0011256D01*
X0140095Y0031256D01*
X0193845Y0031256D01*
X0197595Y0027506D01*
X0197595Y0026756D01*
X0203845Y0021256D02*
X0207595Y0017506D01*
X0207595Y0016756D01*
X0203845Y0021256D02*
X0180095Y0021256D01*
X0170095Y0011256D01*
X0166595Y0011256D01*
X0176595Y0011256D02*
X0212595Y0011256D01*
X0217595Y0016256D01*
X0217595Y0016756D01*
X0217595Y0036756D02*
X0213095Y0036756D01*
X0213595Y0060756D02*
X0213595Y0066256D01*
X0096595Y0011256D02*
X0096345Y0011256D01*
X0086345Y0021256D01*
X0038845Y0021256D01*
X0038095Y0022256D01*
M02*
