G75*
%MOIN*%
%OFA0B0*%
%FSLAX25Y25*%
%IPPOS*%
%LPD*%
%AMOC8*
5,1,8,0,0,1.08239X$1,22.5*
%
%ADD10C,0.00000*%
%ADD11OC8,0.06400*%
%ADD12OC8,0.05600*%
%ADD13C,0.06337*%
D10*
X0024595Y0001256D02*
X0024595Y0081717D01*
X0223296Y0081717D01*
X0223296Y0001256D01*
X0024595Y0001256D01*
D11*
X0187595Y0016756D03*
X0197595Y0016756D03*
X0207595Y0016756D03*
X0217595Y0016756D03*
X0217595Y0026756D03*
X0207595Y0026756D03*
X0197595Y0026756D03*
X0187595Y0026756D03*
X0187595Y0036756D03*
X0197595Y0036756D03*
X0207595Y0036756D03*
X0217595Y0036756D03*
X0217595Y0046756D03*
X0207595Y0046756D03*
X0197595Y0046756D03*
X0187595Y0046756D03*
X0187595Y0056756D03*
X0197595Y0056756D03*
X0207595Y0056756D03*
X0217595Y0056756D03*
X0217595Y0066756D03*
X0207595Y0066756D03*
X0197595Y0066756D03*
X0187595Y0066756D03*
D12*
X0045095Y0065756D03*
X0045095Y0035756D03*
X0038095Y0022256D03*
X0038095Y0012256D03*
D13*
X0056595Y0016256D03*
X0066595Y0011256D03*
X0076595Y0011256D03*
X0086595Y0011256D03*
X0096595Y0011256D03*
X0106595Y0011256D03*
X0116595Y0011256D03*
X0126595Y0011256D03*
X0136595Y0011256D03*
X0146595Y0011256D03*
X0156595Y0011256D03*
X0166595Y0011256D03*
X0176595Y0011256D03*
X0176595Y0041256D03*
X0176595Y0051256D03*
X0176595Y0061256D03*
X0176595Y0071256D03*
X0166595Y0071256D03*
X0156595Y0071256D03*
X0146595Y0071256D03*
X0136595Y0071256D03*
X0126595Y0071256D03*
X0116595Y0071256D03*
X0106595Y0071256D03*
X0096595Y0071256D03*
X0086595Y0071256D03*
X0076595Y0071256D03*
X0066595Y0071256D03*
X0056595Y0066256D03*
X0056595Y0056256D03*
X0056595Y0046256D03*
X0056595Y0036256D03*
X0056595Y0026256D03*
X0101595Y0061256D03*
X0111595Y0061256D03*
M02*
