%
M48
M72
T01C0.03200
T02C0.03937
T03C0.04000
%
T01
X38095Y12256
X38095Y22256
X45095Y35756
X45095Y65756
T02
X56595Y66256
X66595Y71256
X76595Y71256
X86595Y71256
X96595Y71256
X106595Y71256
X116595Y71256
X126595Y71256
X136595Y71256
X146595Y71256
X156595Y71256
X166595Y71256
X176595Y71256
X176595Y61256
X176595Y51256
X176595Y41256
X176595Y11256
X166595Y11256
X156595Y11256
X146595Y11256
X136595Y11256
X126595Y11256
X116595Y11256
X106595Y11256
X96595Y11256
X86595Y11256
X76595Y11256
X66595Y11256
X56595Y16256
X56595Y26256
X56595Y36256
X56595Y46256
X56595Y56256
X101595Y61256
X111595Y61256
T03
X187595Y66756
X197595Y66756
X207595Y66756
X217595Y66756
X217595Y56756
X207595Y56756
X197595Y56756
X187595Y56756
X187595Y46756
X197595Y46756
X207595Y46756
X217595Y46756
X217595Y36756
X207595Y36756
X197595Y36756
X187595Y36756
X187595Y26756
X197595Y26756
X207595Y26756
X217595Y26756
X217595Y16756
X207595Y16756
X197595Y16756
X187595Y16756
M30
